<?xml version="1.0" encoding="UTF-8"?>
<svg version="1.1" xmlns="http://www.w3.org/2000/svg" width="2000" height="494">
<path d="M0 0 C3.44907627 2.5005803 5.16242116 5.12722271 6.00390625 9.328125 C6.3704143 26.43183423 -3.4263501 42.27118814 -10.73144531 57.18066406 C-13.96383721 63.80027405 -17.10897761 70.46167229 -20.25 77.125 C-20.75277969 78.19116547 -20.75277969 78.19116547 -21.26571655 79.27886963 C-28.29335683 94.20450075 -34.99389164 109.26972219 -41.6471405 124.36509705 C-44.04902275 129.80862606 -46.48639273 135.23540554 -48.93876648 140.65634155 C-51.82110323 147.02907976 -54.66901323 153.41677895 -57.5 159.8125 C-57.97679199 160.8835498 -58.45358398 161.95459961 -58.94482422 163.05810547 C-60.27653149 166.07157677 -61.5804628 169.09540728 -62.875 172.125 C-63.26292725 172.99624512 -63.65085449 173.86749023 -64.05053711 174.76513672 C-66.34871068 180.25452562 -67.11307914 183.99896278 -65.5 189.8125 C-63.91145833 191.63541667 -63.91145833 191.63541667 -61.5 191.8125 C-44.23682711 187.97623936 -28.39907538 174.60199642 -15.75390625 162.85546875 C-13.5 160.8125 -13.5 160.8125 -11.04980469 159.06396484 C-8.11210266 156.46998858 -7.00875544 154.32553011 -5.44921875 150.74609375 C-4.9193335 149.54662109 -4.38944824 148.34714844 -3.84350586 147.11132812 C-3.29127515 145.82431688 -2.73927756 144.53720559 -2.1875 143.25 C-1.61255972 141.93764653 -1.03646193 140.62579958 -0.45922852 139.31445312 C2.08268472 133.51761657 4.56227735 127.69566749 6.984375 121.84765625 C7.34233154 120.98406494 7.70028809 120.12047363 8.0690918 119.23071289 C8.71025277 117.669961 9.34259732 116.10554436 9.96411133 114.53686523 C13.01285336 107.02723112 16.41860533 103.35319733 23.5 99.8125 C28.24335504 98.03374186 33.06339019 98.25995777 37.75 100.0625 C42.14236111 102.85763889 42.14236111 102.85763889 43.5 105.8125 C43.19590738 112.47327161 41.15986969 117.33685116 38.16015625 123.2265625 C37.50275703 124.55364983 37.50275703 124.55364983 36.83207703 125.907547 C35.89918685 127.78804748 34.9610924 129.6659739 34.01818848 131.54147339 C31.58904455 136.37414573 29.19802322 141.2256665 26.80078125 146.07421875 C26.33380829 147.01582352 25.86683533 147.95742828 25.38571167 148.92756653 C21.89074028 155.98403687 18.49591202 163.07482607 15.25 170.25 C14.86336182 171.09836426 14.47672363 171.94672852 14.07836914 172.82080078 C12.58852042 176.14325159 11.31147361 179.25272444 10.5 182.8125 C21.82497663 178.80157078 29.73826478 168.67662321 38 160.3125 C40.17402773 158.11152946 42.35159066 155.91414212 44.53125 153.71875 C45.01170776 153.2299939 45.49216553 152.74123779 45.98718262 152.2376709 C48.70693243 149.49897135 51.50706796 146.91269043 54.43115234 144.39233398 C58.35608978 140.99208255 61.97384697 137.37085908 65.5703125 133.62890625 C66.89244885 132.27462839 68.21539151 130.92113732 69.5390625 129.56835938 C71.58009876 127.47822687 73.61616901 125.38420466 75.63867188 123.27612305 C96.23475163 101.84866495 96.23475163 101.84866495 109.1875 101.125 C111.92852041 101.25859595 113.08684641 101.46930835 115.20703125 103.23046875 C117.44225114 105.96540548 117.61720587 107.51530118 117.27685547 110.95458984 C116.68353827 115.65642626 115.22036489 119.35192088 113.0703125 123.5390625 C112.72397263 124.24129944 112.37763275 124.94353638 112.02079773 125.66705322 C110.90131563 127.93030553 109.76328456 130.18365531 108.625 132.4375 C107.8457647 134.00593645 107.06802448 135.57511653 106.29174805 137.14501953 C104.74891699 140.26282774 103.20031952 143.37765291 101.64697266 146.49023438 C98.80665174 152.1931262 96.05027681 157.93468451 93.3125 163.6875 C92.66051636 165.05297974 92.66051636 165.05297974 91.99536133 166.44604492 C88.77192805 173.20824048 85.60185973 179.99364381 82.5 186.8125 C83.33917969 186.29042969 84.17835938 185.76835937 85.04296875 185.23046875 C99.11623148 176.57537226 113.65682053 168.72219579 128.8125 162.125 C129.57014648 161.785896 130.32779297 161.44679199 131.10839844 161.09741211 C136.13876256 158.98275459 140.03969995 158.32622864 145.5 158.8125 C148.3100346 160.60613911 150.00940468 161.83130935 151.5 164.8125 C152.02549647 169.60227114 152.06995506 173.6013455 150 178 C143.24064693 185.6042722 135.55607826 190.22824644 126.59020996 194.80615234 C123.00974535 196.63705511 119.45095711 198.50923717 115.890625 200.37890625 C114.82053192 200.93966354 114.82053192 200.93966354 113.7288208 201.51174927 C99.0942475 209.20632141 84.18944404 217.11545342 71.5 227.8125 C70.59580322 228.4012793 70.59580322 228.4012793 69.67333984 229.00195312 C62.40165973 234.25537816 60.09490181 241.85798984 57.05743408 249.95584106 C55.48266931 254.14705324 53.82855229 258.30706316 52.1875 262.47265625 C51.86834625 263.2889299 51.5491925 264.10520355 51.22036743 264.94621277 C36.49535505 302.51260183 36.49535505 302.51260183 21.5 310.8125 C16.30054294 312.94799129 11.87616095 313.30952043 6.5 311.8125 C1.52569557 309.27842038 -0.40296825 306.92514801 -2.5 301.8125 C-5.52374486 275.39919929 11.60212553 253.53936032 27.11328125 233.97265625 C32.68526089 226.5950269 37.12783583 218.98784988 41.1875 210.6875 C41.69788818 209.6550415 42.20827637 208.62258301 42.73413086 207.55883789 C52.52614963 187.87482071 52.52614963 187.87482071 61.5 167.8125 C60.819375 168.5653125 60.13875 169.318125 59.4375 170.09375 C20.61975314 212.75645809 20.61975314 212.75645809 -3.5 218.8125 C-4.304375 219.039375 -5.10875 219.26625 -5.9375 219.5 C-12.78784598 220.33540805 -18.79324939 220.61806702 -24.93359375 217.0703125 C-27.58131642 214.944211 -28.05370375 213.12784355 -28.5 209.8125 C-28.27138472 207.12745952 -27.87094677 204.48331677 -27.5 201.8125 C-28.45519531 202.47636719 -29.41039062 203.14023437 -30.39453125 203.82421875 C-44.14348721 213.26579949 -59.13065791 221.97434944 -76.5 219.8125 C-84.63699638 218.06177953 -89.94341978 214.83209656 -94.5 207.8125 C-96.73220601 203.04369626 -97.06109683 198.01003754 -97.5 192.8125 C-98.06847656 193.46476563 -98.63695312 194.11703125 -99.22265625 194.7890625 C-101.61465166 197.49652976 -104.04294017 200.16398096 -106.5 202.8125 C-107.0259375 203.3796875 -107.551875 203.946875 -108.09375 204.53125 C-118.38242994 214.38211377 -134.25564885 219.68017769 -148.1875 220.1875 C-156.66000891 219.87963267 -163.58881181 217.83703197 -169.80859375 211.90625 C-174.10960855 206.58213007 -175.43693133 200.42670761 -176.5 193.8125 C-177.08338135 194.24747803 -177.6667627 194.68245605 -178.26782227 195.13061523 C-184.69382422 199.79093385 -191.27129544 203.48015863 -198.4375 206.875 C-199.5212793 207.39231689 -200.60505859 207.90963379 -201.72167969 208.44262695 C-233.17899645 223.11916249 -233.17899645 223.11916249 -247.78515625 219.19921875 C-252.25085857 217.30442543 -254.99627399 214.90625386 -256.875 210.40234375 C-260.47182024 195.4980199 -254.82323508 182.55528552 -247.875 169.625 C-247.35301025 168.63757813 -246.83102051 167.65015625 -246.29321289 166.6328125 C-242.62101035 159.74402121 -238.78028673 152.96582399 -234.71044922 146.30395508 C-230.81290903 139.88267913 -228.02483469 134.57353346 -228.5 126.8125 C-241.39752253 125.8053182 -250.80506843 130.58888596 -260.5 138.8125 C-269.89303973 147.15473355 -277.44850202 156.45748934 -284.5 166.8125 C-285.01030762 167.54823242 -285.52061523 168.28396484 -286.04638672 169.04199219 C-293.50644684 179.84308867 -299.84538927 190.89233062 -305.45483398 202.76733398 C-308.51610131 209.18636332 -311.25114003 214.64659335 -317.3125 218.6875 C-321.22564786 220.06861101 -324.40125905 220.54061965 -328.5 219.8125 C-332.15804024 218.01798969 -334.06111892 216.42127052 -336.4375 213.125 C-338.32090572 207.25320571 -336.70541883 201.72528718 -335.5 195.8125 C-336.56734375 196.4415625 -337.6346875 197.070625 -338.734375 197.71875 C-361.92026391 211.13910825 -392.86588073 225.24076584 -420.3125 218.6875 C-429.69857053 215.73798591 -438.30313286 209.36913138 -443.23046875 200.8046875 C-445.22736588 196.86781191 -447.10311822 193.00314535 -448.5 188.8125 C-451.8584678 190.08666933 -454.92328325 191.53383165 -458.01953125 193.3515625 C-458.86918457 193.84591797 -459.71883789 194.34027344 -460.59423828 194.84960938 C-461.49126465 195.37361328 -462.38829102 195.89761719 -463.3125 196.4375 C-502.30044608 218.93236343 -502.30044608 218.93236343 -519.625 214.8125 C-525.13283125 213.02524742 -528.35752394 209.57906919 -531.5 204.8125 C-534.80883458 194.88599627 -531.44816103 185.20632424 -527.25 176.1015625 C-522.38314208 166.67202527 -515.82766601 158.28661109 -509.515625 149.796875 C-509.02280029 149.13139648 -508.52997559 148.46591797 -508.0222168 147.78027344 C-507.07538292 146.5038926 -506.12398374 145.23088089 -505.16723633 143.96191406 C-499.67373112 136.65164155 -499.67373112 136.65164155 -498.5 127.8125 C-505.76197638 129.64608872 -512.38905358 131.94980783 -518.9375 135.5625 C-520.04996094 136.17609375 -521.16242188 136.7896875 -522.30859375 137.421875 C-529.1182251 142.52284732 -532.77199603 149.73167247 -536.4375 157.25 C-536.89495605 158.16942383 -537.35241211 159.08884766 -537.82373047 160.03613281 C-540.77367623 166.04134472 -543.54015552 172.11393932 -546.23046875 178.23828125 C-546.88217703 179.711048 -547.53395136 181.18378553 -548.18579102 182.65649414 C-549.45787197 185.53314303 -550.70271708 188.41962735 -551.93334961 191.31420898 C-557.4093432 203.91710751 -564.62128759 213.57876611 -577.5625 219.125 C-581.11641121 219.95676645 -583.86343826 220.27533513 -587.5 219.8125 C-590.4375 217.875 -590.4375 217.875 -592.5 214.8125 C-593.55622274 206.33716429 -590.51136354 200.4393541 -586.8125 192.9375 C-586.22068579 191.70574676 -585.6304636 190.47322748 -585.04174805 189.23999023 C-583.51427296 186.05009701 -581.96694792 182.87026124 -580.41503906 179.69219971 C-578.9613936 176.70607915 -577.52813581 173.71025257 -576.09375 170.71484375 C-575.54799316 169.57740723 -575.00223633 168.4399707 -574.43994141 167.26806641 C-573.36025972 165.0170289 -572.28179678 162.76540641 -571.20458984 160.51318359 C-568.65284081 155.19854419 -566.05448316 149.92262042 -563.3203125 144.69921875 C-562.83264404 143.7445874 -562.34497559 142.78995605 -561.8425293 141.80639648 C-560.93363598 140.03140917 -560.00155052 138.26802689 -559.04223633 136.51977539 C-557.89332503 134.24644736 -556.9789256 132.31501784 -556.5 129.8125 C-557.40865196 127.04987677 -558.8060279 125.24449768 -560.5 122.8125 C-561.46491027 117.58353773 -561.11365863 113.13422628 -558.875 108.3125 C-554.52380164 103.7322912 -549.57056352 102.01359484 -543.3984375 101.609375 C-534.55185883 101.49168216 -526.21271057 101.67749828 -518.9375 107.25 C-515.5984589 110.76027397 -515.5984589 110.76027397 -515.5 113.8125 C-515.81299838 115.15075293 -516.14398744 116.4850423 -516.5 117.8125 C-515.48421875 117.29300781 -514.4684375 116.77351563 -513.421875 116.23828125 C-480.51911599 99.51793092 -480.51911599 99.51793092 -462.5 101.8125 C-458.07834173 104.06958079 -455.09284503 106.0339649 -453.5 110.8125 C-452.3357834 124.53362421 -455.41676473 132.690133 -464.24291992 143.18139648 C-471.80483753 151.9964085 -479.83834514 160.24581019 -488.14233398 168.35888672 C-497.42268453 177.21144713 -497.42268453 177.21144713 -504.5 187.8125 C-496.54682214 184.17240751 -488.61446317 180.4915537 -480.71025085 176.74627686 C-477.38291942 175.16981558 -474.05270824 173.60197329 -470.70605469 172.06689453 C-467.26388899 170.47787845 -463.84947789 168.84014081 -460.4375 167.1875 C-459.4050415 166.7231958 -458.37258301 166.2588916 -457.30883789 165.78051758 C-450.38487923 162.33918508 -447.9616766 158.96338411 -445.44360352 151.68457031 C-445.13221436 150.73678711 -444.8208252 149.78900391 -444.5 148.8125 C-434.68993481 126.87204848 -415.63960124 109.67270513 -393.5 100.8125 C-379.47395647 95.78783126 -361.95820537 92.33854168 -347.73828125 98.48828125 C-342.26123072 101.72863052 -338.9082585 106.57440922 -336.97265625 112.58984375 C-334.73996857 123.08901142 -337.59899773 132.36418031 -343.0625 141.375 C-358.54010731 162.89078498 -387.65522179 173.65728269 -411.5 182.8125 C-410.90038575 186.09895511 -410.61332709 186.71452468 -407.93359375 189.03125 C-404.00554715 191.06900796 -400.8856247 191.42702314 -396.5625 191.3125 C-395.44488281 191.29328491 -395.44488281 191.29328491 -394.3046875 191.27368164 C-375.73068211 190.60947962 -357.88644398 181.44580151 -341.70849609 172.93554688 C-339.27719143 171.69919916 -336.80949138 170.56272052 -334.33203125 169.421875 C-322.73459458 163.87882646 -316.96680777 159.22225319 -312.45751953 147.19482422 C-310.57333354 142.50693873 -308.17284634 138.05779025 -305.875 133.5625 C-304.93156483 131.68461169 -303.99009665 129.80573364 -303.05078125 127.92578125 C-302.39070068 126.60634521 -302.39070068 126.60634521 -301.71728516 125.26025391 C-300.6685565 123.15143852 -299.63211675 121.03759153 -298.60546875 118.91796875 C-298.09628906 117.87253906 -297.58710937 116.82710938 -297.0625 115.75 C-296.65128906 114.89277344 -296.24007813 114.03554687 -295.81640625 113.15234375 C-292.49600657 107.25050574 -288.86148587 103.97147978 -282.5 101.8125 C-278.34821782 101.05554524 -275.34178103 101.31841113 -271.625 103.5 C-269.29878242 106.03147207 -268.26152103 107.46180745 -267.5 110.8125 C-267.64245717 113.54462493 -268.04112563 116.10514124 -268.5 118.8125 C-267.819375 118.255625 -267.13875 117.69875 -266.4375 117.125 C-249.99923072 104.18423483 -228.86503623 94.21234472 -207.5 95.8125 C-202.51752082 96.7184053 -199.3227056 98.0598119 -195.5625 101.5 C-190.87061368 109.03545379 -190.787527 116.27805576 -192.5 124.8125 C-196.79634953 140.37234978 -204.54520925 154.18597907 -213.25390625 167.65625 C-213.89448975 168.64778076 -214.53507324 169.63931152 -215.19506836 170.66088867 C-216.46044259 172.60433061 -217.73822254 174.53976358 -219.02954102 176.46606445 C-219.90050415 177.79190552 -219.90050415 177.79190552 -220.7890625 179.14453125 C-221.57337646 180.31592651 -221.57337646 180.31592651 -222.37353516 181.51098633 C-223.66078221 184.14099889 -223.72184652 185.92114301 -223.5 188.8125 C-218.34595076 188.27066405 -213.99259043 187.06545336 -209.25 184.9375 C-208.57251709 184.637229 -207.89503418 184.33695801 -207.19702148 184.02758789 C-198.27765084 179.95053679 -189.84735492 174.94125964 -181.5 169.8125 C-180.69425537 169.34811523 -179.88851074 168.88373047 -179.05834961 168.40527344 C-173.51608293 165.04577771 -171.02327356 162.28551123 -168.9375 156.1875 C-168.37720615 154.75956983 -167.80806165 153.33508333 -167.23046875 151.9140625 C-166.9473584 151.21700195 -166.66424805 150.51994141 -166.37255859 149.80175781 C-156.80851906 127.9976744 -134.02471186 110.4565986 -112.95703125 101.1328125 C-99.56868329 96.01952254 -84.81188788 92.85645548 -71.1640625 98.8359375 C-69.25237383 99.78172032 -67.37242154 100.79117916 -65.5 101.8125 C-65.32467743 101.26106323 -65.14935486 100.70962646 -64.96871948 100.14147949 C-63.21711378 94.74582077 -61.20889993 89.54291156 -58.9453125 84.34375 C-58.24709447 82.71994891 -57.54902102 81.09608565 -56.85107422 79.47216797 C-56.48786072 78.63055115 -56.12464722 77.78893433 -55.75042725 76.92181396 C-49.16002813 61.64190981 -42.79170413 46.30226105 -36.87548828 30.74804688 C-34.46930382 24.46302723 -31.91226343 18.26639597 -29.0078125 12.1953125 C-28.48074707 11.08816895 -27.95368164 9.98102539 -27.41064453 8.84033203 C-21.24335783 -0.9330758 -10.73645027 -3.6427242 0 0 Z M-397.625 131 C-405.16767618 139.95692796 -411.3807121 150.50508135 -414.5 161.8125 C-411.2175687 160.56511146 -408.21600559 159.17336543 -405.19921875 157.37890625 C-404.39444092 156.90026123 -403.58966309 156.42161621 -402.76049805 155.9284668 C-401.91140869 155.41582275 -401.06231934 154.90317871 -400.1875 154.375 C-399.30682861 153.84366455 -398.42615723 153.3123291 -397.51879883 152.76489258 C-379.19392734 142.76279334 -379.19392734 142.76279334 -365.5 127.8125 C-364.99989476 124.85480823 -364.99989476 124.85480823 -365.5 121.8125 C-375.37461564 113.34854374 -390.33429189 123.4948593 -397.625 131 Z M-118.5 137.8125 C-119.19222656 138.41449219 -119.88445312 139.01648438 -120.59765625 139.63671875 C-131.55080125 149.70348207 -139.59265675 164.82601814 -140.72265625 179.75390625 C-140.86987984 183.79896224 -140.86987984 183.79896224 -140.5 187.8125 C-136.67279985 190.36396677 -135.0688164 190.24762537 -130.5 189.8125 C-110.05130437 183.86378854 -97.29179039 166.41954805 -87.30761719 148.69580078 C-82.10142509 139.03212542 -77.79481054 128.90530476 -73.5 118.8125 C-89.78308513 118.33708146 -106.80595787 126.93382228 -118.5 137.8125 Z " fill="#101010" transform="translate(1845.5,101.1875)"/>
<path d="M0 0 C1.06605469 0.2460498 2.13210937 0.49209961 3.23046875 0.74560547 C4.25785156 0.9829541 5.28523437 1.22030273 6.34375 1.46484375 C7.3335083 1.69252441 8.3232666 1.92020508 9.34301758 2.15478516 C11.16722954 2.57658818 12.99012762 3.00413883 14.8112793 3.43896484 C38.47535078 8.97493749 60.70339724 3.8553199 83.82162476 -1.54202271 C102.39109385 -5.87299185 120.68662695 -9.11260505 139.81640625 -9.203125 C140.81867752 -9.21013931 141.82094879 -9.21715363 142.85359192 -9.22438049 C146.08994069 -9.2418375 149.32610579 -9.24823775 152.5625 -9.25 C154.22880463 -9.25101212 154.22880463 -9.25101212 155.92877197 -9.25204468 C229.75915786 -9.18105265 229.75915786 -9.18105265 257 4 C262.90903071 10.38175317 262.25091178 16.22394337 262.29516602 24.49316406 C262.31232983 26.72784469 262.35620843 28.96102621 262.40039062 31.1953125 C262.41052243 32.62498915 262.41903701 34.05467836 262.42578125 35.484375 C262.44765503 37.42908691 262.44765503 37.42908691 262.4699707 39.41308594 C261.92151697 43.59899882 260.63059071 45.74045479 258 49 C256 50.1171875 256 50.1171875 254 50.875 C251.05951615 52.63278001 250.11834907 53.71070228 248.8046875 56.921875 C247.93819557 60.37327984 247.19362315 63.81230573 246.52587891 67.30615234 C245.4720746 72.70433093 244.25320539 78.06817682 243.0625 83.4375 C242.80307617 84.61054688 242.54365234 85.78359375 242.27636719 86.9921875 C237.47396753 108.50982301 232.06111601 132.16062601 212.7109375 145.3359375 C188.53103631 160.58638888 154.09899169 162.9459709 126.63085938 157.41064453 C101.54243643 151.69888936 78.26550385 138.88208135 64.0625 116.9375 C57.19296491 106.01771878 53.20558767 94.12659962 49.25 81.9375 C48.51089265 79.67756493 47.77003277 77.41821793 47.027771 75.15931702 C46.57037585 73.76553468 46.11508599 72.37105924 45.66217041 70.97581482 C44.50462521 67.41887126 44.50462521 67.41887126 43 64 C40.11305105 63.23014695 37.8984984 62.76583536 34.9765625 63.52734375 C31.96106013 65.7740718 31.28212217 68.85758658 30.1875 72.3125 C29.93524658 73.05943115 29.68299316 73.8063623 29.4230957 74.57592773 C28.01275797 78.77674099 26.68648972 83.00184001 25.375 87.234375 C17.17497975 113.36638683 3.42493126 133.91837994 -21.2578125 147.1484375 C-50.34860844 161.97873739 -85.84420373 162.94050095 -116.9375 154.1875 C-133.20176401 148.71791883 -145.30690727 140.34091658 -153.55078125 125.140625 C-161.80878882 108.32587058 -165.54430093 89.92682642 -169.25805664 71.69970703 C-169.81253558 68.99570519 -170.38032691 66.2947498 -170.94921875 63.59375 C-171.11177658 62.77201294 -171.27433441 61.95027588 -171.44181824 61.1036377 C-172.28533044 57.11546186 -172.89292814 54.65246333 -176 52 C-177.485 51.0409375 -177.485 51.0409375 -179 50.0625 C-183.12240843 47.2283442 -185.05094304 44.87646391 -186 40 C-186.22690591 35.7112876 -186.18515349 31.41911019 -186.1875 27.125 C-186.19974609 25.95324219 -186.21199219 24.78148437 -186.22460938 23.57421875 C-186.22654297 22.43855469 -186.22847656 21.30289063 -186.23046875 20.1328125 C-186.23457764 19.10043457 -186.23868652 18.06805664 -186.24291992 17.00439453 C-185.89562392 12.70909341 -184.93264652 9.22342546 -182.30859375 5.78125 C-141.6436318 -25.59476125 -45.45152025 -10.4944219 0 0 Z M-162 23 C-162.08636613 24.43774202 -162.14803095 25.8769824 -162.19921875 27.31640625 C-162.23619873 28.11763916 -162.27317871 28.91887207 -162.3112793 29.74438477 C-162.20184735 32.05767228 -162.20184735 32.05767228 -160.63208008 33.57006836 C-159.73138794 34.24694702 -159.73138794 34.24694702 -158.8125 34.9375 C-148.82937542 42.44950469 -147.82461996 56.59252503 -145.5 68.0625 C-142.3662739 83.32347847 -142.3662739 83.32347847 -138.41015625 98.38671875 C-138.21478271 99.06025894 -138.01940918 99.73379913 -137.81811523 100.42774963 C-134.36388194 111.85553488 -129.42471101 121.54901159 -118.83203125 127.58203125 C-98.50243373 137.76085042 -69.08587856 138.73843382 -47.48828125 132.1953125 C-46.33714844 131.80085938 -45.18601562 131.40640625 -44 131 C-42.35064453 130.43925781 -42.35064453 130.43925781 -40.66796875 129.8671875 C-33.70521969 127.22221867 -27.83219858 123.6043673 -22 119 C-21.21625 118.38125 -20.4325 117.7625 -19.625 117.125 C-4.76304561 104.67309227 0.67965288 86.77360097 6.25268555 68.91308594 C10.85777998 54.23017616 10.85777998 54.23017616 16 48 C16 47.34 16 46.68 16 46 C27.32523928 40.23395352 36.62883998 37.40658705 49.16796875 40.99609375 C56.98299524 43.7663859 61.42442702 47.52380195 65 55 C68.42873635 62.58945012 71.13048881 70.29020248 73.55859375 78.24853516 C77.97527963 92.70336657 83.05814434 104.17332177 94 115 C94.59039062 115.62390625 95.18078125 116.2478125 95.7890625 116.890625 C112.68912889 133.41844323 137.19394798 135.45514767 159.44921875 135.21484375 C175.21098893 134.90120576 192.14875377 132.36122251 204 121 C208.53408761 115.26908668 211.36957782 109.32523167 213.5546875 102.39453125 C213.84673065 101.49313919 214.1387738 100.59174713 214.43966675 99.66304016 C218.0379098 88.19772877 220.35242331 76.44039569 222.73486328 64.67602539 C223.33346864 61.74333611 223.95107938 58.81511053 224.5703125 55.88671875 C224.74128448 55.00956711 224.91225647 54.13241547 225.08840942 53.22868347 C226.60958483 46.08311782 229.11252745 39.83737341 235.3125 35.625 C238.22619681 33.33630914 238.22619681 33.33630914 238.26245117 30.55615234 C238.21568237 29.209646 238.21568237 29.209646 238.16796875 27.8359375 C238.14371826 26.93149902 238.11946777 26.02706055 238.09448242 25.09521484 C238.04771362 24.0580835 238.04771362 24.0580835 238 23 C185.15252766 11.71524637 132.75622363 11.04354172 80.1875 23.625 C66.50316131 26.89487538 53.14126941 29.8356027 39 30 C38.29504395 30.01240723 37.59008789 30.02481445 36.86376953 30.03759766 C20.03614116 30.1443268 3.3522046 25.53358233 -12.90258789 21.65576172 C-61.94150851 10.00013421 -112.93021162 12.52191187 -162 23 Z " fill="#040404" transform="translate(213,89)"/>
<path d="M0 0 C0.69609375 0.56203125 1.3921875 1.1240625 2.109375 1.703125 C2.73328125 2.13109375 3.3571875 2.5590625 4 3 C6.99304421 2.29950029 9.55829491 1.19957439 12.3515625 -0.0625 C17.96160961 -2.04835739 23.97785279 -1.7583052 29.5 0.3125 C34.46575342 3.66438356 34.46575342 3.66438356 35.875 7.1875 C36.19736855 14.44079246 31.1954148 21.55891021 27.75 27.6875 C22.72527727 36.75900037 17.87878293 45.90974805 13.125 55.125 C12.81284546 55.72911713 12.50069092 56.33323425 12.17907715 56.95565796 C8.05569434 64.93897165 3.99847037 72.95342308 0 81 C1.05405029 80.40481567 1.05405029 80.40481567 2.12939453 79.79760742 C42.00435756 57.33188081 42.00435756 57.33188081 52 54 C53.14847609 52.33639168 53.14847609 52.33639168 54.05859375 50.22265625 C54.43862549 49.41119141 54.81865723 48.59972656 55.21020508 47.76367188 C55.6152124 46.87228516 56.02021973 45.98089844 56.4375 45.0625 C56.86635498 44.14404297 57.29520996 43.22558594 57.73706055 42.27929688 C60.25371582 36.87224793 62.70524853 31.43665114 65.1484375 25.99609375 C65.6751001 24.83263428 66.2017627 23.6691748 66.74438477 22.47045898 C67.77379867 20.19222161 68.79287702 17.90928013 69.80053711 15.62133789 C73.10569401 8.30217486 76.29496756 2.3271731 84 -1 C89.66995811 -1.7679164 94.18175305 -1.28516838 99 2 C102.89767745 5.38928474 104.37419002 7.76236635 104.8125 12.9375 C104.48674034 19.3412491 101.62406312 24.13985066 98.48828125 29.578125 C95.51422814 34.75477986 92.94325807 40.11318938 90.375 45.5 C89.66984253 46.97835327 89.66984253 46.97835327 88.95043945 48.48657227 C80.48517189 65.513103 80.48517189 65.513103 78 84 C80.42455474 86.42455474 81.26507444 86.43213418 84.625 86.625 C96.82010448 86.40064854 108.28848075 77.82990753 117 70 C118.17369141 68.98679687 118.17369141 68.98679687 119.37109375 67.953125 C123.16487295 64.62673939 126.80939474 61.24101049 130.23828125 57.5390625 C130.79990967 56.94375732 131.36153809 56.34845215 131.94018555 55.73510742 C133.03951651 54.56217974 134.12150322 53.37267993 135.18286133 52.1652832 C137.36898669 49.84570151 138.92306528 48.21625896 142.1105957 47.57617188 C145.33090776 47.50360146 147.41809342 47.51194932 149.9375 49.625 C152.15566609 54.58325362 152.36607918 58.67049145 150.83984375 63.9375 C146.36595535 74.92453756 134.85824177 83.55513261 126 91 C125.19175781 91.69738281 124.38351562 92.39476562 123.55078125 93.11328125 C107.96507012 106.2871889 90.06822882 117.65655851 68.99609375 117.25390625 C60.68123131 116.54925689 53.6889645 113.79436348 47.8125 107.75 C44.5241871 102.76083559 42.8107783 98.25581601 42.921875 92.234375 C42.9331543 91.43741211 42.94443359 90.64044922 42.95605469 89.81933594 C42.97055664 89.21895508 42.98505859 88.61857422 43 88 C17.57343432 99.74170152 17.57343432 99.74170152 -6.3125 114.25 C-7.0245459 114.74556396 -7.7365918 115.24112793 -8.47021484 115.75170898 C-16.11677134 121.25119826 -19.76826792 127.97165493 -24.125 136.1875 C-25.28571953 138.3532607 -26.4471849 140.51862183 -27.609375 142.68359375 C-28.18236328 143.75335449 -28.75535156 144.82311523 -29.34570312 145.92529297 C-31.6557196 150.21873269 -34.00585126 154.48896112 -36.375 158.75 C-36.78242432 159.48444336 -37.18984863 160.21888672 -37.60961914 160.97558594 C-39.85675808 165.00836899 -42.17901903 168.98321234 -44.5625 172.9375 C-47.10615761 177.20870025 -49.19834936 181.57011437 -51.23291016 186.09619141 C-60.04554789 205.60908189 -60.04554789 205.60908189 -69.0546875 209.2265625 C-73.99816 210.52471576 -77.78168806 210.35103903 -82.6875 208.9375 C-86.74629617 206.56348715 -88.72630067 204.46544002 -90 200 C-93.24121915 175.90489915 -75.21996231 151.68862157 -61.31640625 133.45703125 C-57.49039929 128.51096301 -53.54352043 123.66375091 -49.59375 118.81640625 C-49.0167334 118.10806641 -48.4397168 117.39972656 -47.84521484 116.66992188 C-46.73374383 115.30826735 -45.61966389 113.94873637 -44.50244141 112.59179688 C-41.15508177 108.5065276 -38.02714852 104.32848728 -35 100 C-35.88300781 100.53109375 -36.76601563 101.0621875 -37.67578125 101.609375 C-49.14328428 108.39999856 -61.92324981 115.53505799 -75.6796875 112.38671875 C-84.86487652 109.49885461 -90.42466525 104.38460095 -94.9375 95.9375 C-96.86489979 92.01083127 -97.49582088 88.33594042 -98 84 C-98.99966797 84.81791016 -98.99966797 84.81791016 -100.01953125 85.65234375 C-101.96915151 87.2474876 -103.9211672 88.83970622 -105.875 90.4296875 C-107.83876232 92.03431349 -109.76716751 93.66235102 -111.6875 95.3203125 C-126.43965131 107.92110841 -144.25786789 117.65636921 -164.04296875 117.25 C-171.39760184 116.62820803 -178.80207733 114.47567427 -184 109 C-190.05702116 100.72469317 -190.60863143 91.38013642 -189.66015625 81.4375 C-186.92818074 64.86708644 -178.48868428 49.60708493 -171.2578125 34.62158203 C-169.86640767 31.72156164 -168.49476734 28.81264397 -167.125 25.90234375 C-166.14589734 23.83069891 -165.16673161 21.75908389 -164.1875 19.6875 C-163.73141357 18.71458008 -163.27532715 17.74166016 -162.80541992 16.73925781 C-156.43935016 3.33379526 -156.43935016 3.33379526 -151 0 C-145.7935264 -1.7354912 -140.85065911 -1.66344383 -135.6875 0.1875 C-132.17229166 2.5582219 -129.89359619 5.21280762 -128 9 C-127.24462 16.29926974 -129.45777943 21.01189407 -132.75 27.4375 C-133.75542983 29.46994253 -134.76062964 31.50249886 -135.765625 33.53515625 C-136.29349609 34.58848145 -136.82136719 35.64180664 -137.36523438 36.72705078 C-140.12530367 42.25296012 -142.81342584 47.81309455 -145.5 53.375 C-146.25555176 54.91498657 -146.25555176 54.91498657 -147.02636719 56.48608398 C-152.61079125 67.76050767 -152.61079125 67.76050767 -154.1875 80.0625 C-154.16042969 81.00222656 -154.13335938 81.94195312 -154.10546875 82.91015625 C-154.05326172 83.94462891 -154.05326172 83.94462891 -154 85 C-149.3918104 87.3040948 -143.86750574 86.53073868 -139.05859375 85.1640625 C-128.25032979 80.96476307 -119.796612 73.96422764 -111.359375 66.171875 C-108.53463486 63.57161752 -105.62290255 61.08408253 -102.69140625 58.60546875 C-99.15536917 55.24909175 -97.59286224 52.23084656 -96.25 47.5625 C-92.64063596 36.3379247 -86.80691175 26.78666362 -79 18 C-78.43539062 17.36449219 -77.87078125 16.72898438 -77.2890625 16.07421875 C-57.87165969 -4.482703 -25.45127125 -14.81360693 0 0 Z M-62.20703125 41.2421875 C-68.88107279 51.50770673 -70.83580251 61.93405104 -70 74 C-68.4290396 78.71288119 -66.35086836 81.54081354 -62 84 C-57.9503878 84.91392026 -54.55375696 84.72109561 -50.76953125 82.96484375 C-48.37419024 81.44284831 -46.19881296 79.79464666 -44 78 C-43.18402344 77.33484375 -42.36804688 76.6696875 -41.52734375 75.984375 C-30.21688122 66.26471941 -19.02219823 52.79216378 -13 39 C-13.06810103 35.11824147 -13.60978473 32.6991357 -15.5 29.3125 C-20.22635182 24.94062457 -25.49647403 22.79415709 -31.9375 22.5 C-44.83324175 23.1188359 -54.6540105 31.38255562 -62.20703125 41.2421875 Z " fill="#101010" transform="translate(973,204)"/>
<path d="M0 0 C0.89976562 0.64582031 1.79953125 1.29164062 2.7265625 1.95703125 C19.5583022 14.82427028 27.78833976 33.38685001 30.58984375 53.9921875 C34.69708978 90.07384085 20.50709423 126.19783907 -1.4375 154.3125 C-19.19169646 176.42698799 -39.79572336 193.8927333 -65 207 C-66.11761719 207.59167969 -67.23523438 208.18335938 -68.38671875 208.79296875 C-86.64863764 217.89269344 -106.84417481 223.9905786 -127 227 C-127.75007324 227.11424316 -128.50014648 227.22848633 -129.27294922 227.34619141 C-138.07769379 228.63343477 -146.85413611 229.19853395 -155.75 229.3125 C-157.00103516 229.33908691 -157.00103516 229.33908691 -158.27734375 229.36621094 C-164.53486922 229.35855491 -168.81191333 228.18808667 -173.375 223.625 C-176.24489291 217.2229312 -176.52401423 211.26386498 -174.16210938 204.65576172 C-170.90254192 196.90446192 -166.87865061 189.52506823 -162.92785645 182.11125183 C-156.59254667 170.18925031 -150.53856278 158.13914 -144.55703354 146.03640556 C-141.72165109 140.30357914 -138.8731681 134.57725734 -136.02734375 128.84960938 C-132.43535608 121.61772118 -128.8469295 114.38412877 -125.27099609 107.14428711 C-122.35268566 101.23599501 -119.42156294 95.33416966 -116.48309708 89.43586922 C-115.37445529 87.20507361 -114.27012794 84.97212804 -113.17037582 82.73693657 C-111.63243428 79.6124566 -110.07943271 76.49589069 -108.52294922 73.38061523 C-108.08118347 72.47394104 -107.63941772 71.56726685 -107.18426514 70.63311768 C-101.35598036 59.06788762 -92.74160396 48.82024398 -81.6875 41.9375 C-76.09475866 40.51561661 -70.72411712 40.19516356 -65 41 C-61.12568531 43.65884342 -59.11325757 46.44576449 -58 51 C-56.5338891 63.22510934 -62.11040534 73.93435514 -67.9375 84.3125 C-68.50742676 85.3452002 -69.07735352 86.37790039 -69.66455078 87.44189453 C-71.4315295 90.63449828 -73.2137152 93.81816472 -75 97 C-75.53866699 97.96437988 -76.07733398 98.92875977 -76.63232422 99.92236328 C-79.82341054 105.6320546 -83.04509345 111.32361653 -86.2890625 117.00341797 C-87.45795652 119.05065044 -88.62451928 121.09921529 -89.7890625 123.14892578 C-103.9651333 148.08900779 -118.56349619 173.16133096 -136 196 C-104.67761378 193.16666288 -78.10593807 175.29321975 -56 154 C-55.2471875 153.31035156 -54.494375 152.62070313 -53.71875 151.91015625 C-31.15178531 130.61053922 -13.01094714 98.11798016 -10.77734375 66.88671875 C-10.37197497 52.45206527 -13.22641591 37.18244271 -23.125 26.125 C-32.97799271 17.20934952 -45.14762919 14.51918959 -58.015625 14.75390625 C-78.76838775 16.03569454 -98.98579775 21.55422899 -117 32 C-118.47339844 32.83724609 -118.47339844 32.83724609 -119.9765625 33.69140625 C-128.39795502 39.11555965 -133.74881121 47.01826918 -139.54003906 55.00878906 C-141.4754857 57.64850524 -143.5058345 60.20401631 -145.5625 62.75 C-146.43068359 63.82507813 -146.43068359 63.82507813 -147.31640625 64.921875 C-147.87199219 65.60765625 -148.42757812 66.2934375 -149 67 C-149.64066406 67.84691406 -150.28132812 68.69382812 -150.94140625 69.56640625 C-155.79160336 75.30013072 -162.85976399 79.53577507 -170.37890625 80.21484375 C-176.62806197 80.44767369 -181.01009914 79.68060077 -185.8125 75.375 C-188.45789151 70.08421698 -188.45752317 64.77337013 -186.9375 59.125 C-182.77875169 47.18239975 -175.81745581 38.77118514 -167 30 C-166.18402344 29.18402344 -165.36804688 28.36804688 -164.52734375 27.52734375 C-127.12578394 -7.87613607 -45.82956139 -33.55099289 0 0 Z " fill="#101010" transform="translate(765,94)"/>
<path d="M0 0 C0.7528125 0.54398437 1.505625 1.08796875 2.28125 1.6484375 C4.49164416 2.89773306 4.49164416 2.89773306 6.91796875 1.9765625 C7.77003906 1.53054688 8.62210938 1.08453125 9.5 0.625 C10.43457031 0.150625 11.36914062 -0.32375 12.33203125 -0.8125 C14.31288477 -1.85095532 16.29206716 -2.89260484 18.26953125 -3.9375 C30.99267435 -9.59906791 47.78562326 -9.3576937 60.72265625 -4.5625 C61.63917969 -4.170625 62.55570313 -3.77875 63.5 -3.375 C64.36496094 -3.024375 65.22992188 -2.67375 66.12109375 -2.3125 C83.7465937 5.60660138 93.04178306 20.33070328 101.69165039 36.70166016 C109.31599386 51.08219001 119.08246516 69.15248839 135.5 74.625 C140.17445351 75.16812698 143.55263112 75.1351217 147.75 72.875 C149.54441863 71.40683931 151.29799175 69.88685763 153 68.3125 C155.5 66.625 155.5 66.625 158.6875 66.75 C161.5 67.625 161.5 67.625 163.5 69.625 C163.97933955 83.5258469 153.2359907 98.31197513 144.265625 108.05078125 C132.86321469 119.13645794 119.12487968 124.08869462 103.43066406 123.98413086 C86.50172381 123.57177693 72.72236606 114.88516446 61.27734375 102.90234375 C56.65518898 97.62772781 52.73519763 91.78771165 48.68359375 86.07421875 C37.99857242 71.06255015 25.44847682 58.20863628 6.5 54.625 C2.39189163 54.80410009 -0.77968159 55.92159578 -4.5 57.625 C-5.5621875 58.10710937 -6.624375 58.58921875 -7.71875 59.0859375 C-23.86118724 67.11944015 -33.71569068 80.69346135 -44.16357422 94.87915039 C-54.74830461 109.18627919 -67.48903458 120.20998212 -85.5 123.625 C-100.13436382 125.29196745 -114.21733722 122.86326942 -126.1015625 113.68359375 C-138.35620715 103.1653564 -148.15883552 90.5426031 -152.5 74.625 C-152.18913769 71.88232875 -151.79150395 70.11083992 -150.375 67.75 C-148.5 66.625 -148.5 66.625 -144.9375 66.6875 C-141.5 67.625 -141.5 67.625 -140.3125 69.5625 C-140.044375 70.243125 -139.77625 70.92375 -139.5 71.625 C-137.54978917 72.85027948 -137.54978917 72.85027948 -135.5 73.625 C-134.84 73.955 -134.18 74.285 -133.5 74.625 C-126.5020885 75.68814425 -121.6961213 74.35977321 -115.8671875 70.4375 C-102.85305142 60.47288095 -95.01498372 46.45996311 -87.96191406 31.97241211 C-79.53246605 15.00968353 -65.62714981 0.94703076 -47.5 -5.375 C-31.76285922 -10.06229892 -13.93778144 -8.89732461 0 0 Z M-67.16796875 22.78515625 C-71.40384562 27.94341837 -74.41426502 33.74380076 -77.5 39.625 C-87.50039137 58.46343801 -98.87340978 78.98536248 -120.25 86.5 C-123.9730079 87.59342394 -127.64485175 88.21487785 -131.5 88.625 C-125.02817505 99.59896404 -116.1116321 105.91303335 -104.5 110.625 C-93.89025937 113.30882492 -83.11178385 111.4629268 -73.66015625 105.9765625 C-71.18726591 104.273429 -68.83170274 102.51631369 -66.5 100.625 C-65.54480469 99.89152344 -64.58960938 99.15804687 -63.60546875 98.40234375 C-59.88188726 95.27802708 -57.12658435 91.51633571 -54.25 87.625 C-53.40356934 86.50158203 -53.40356934 86.50158203 -52.54003906 85.35546875 C-50.37471115 82.48142131 -48.22384523 79.59673744 -46.07421875 76.7109375 C-32.73608859 58.84807291 -18.16522162 47.91473892 3.39453125 41.8046875 C7.72563198 41.55408293 11.13600058 42.74940328 15.1875 44.1875 C15.98551025 44.46489014 16.78352051 44.74228027 17.60571289 45.02807617 C38.54912871 52.52408347 50.4074778 66.66949004 63.20581055 83.97875977 C72.59399274 96.64723961 82.22140953 106.67731094 97.8125 111.3125 C110.73079794 112.81462767 121.64707196 109.92822309 131.9765625 101.85546875 C135.8415303 98.43922012 139.46871553 94.81147311 142.5 90.625 C142.5 89.965 142.5 89.305 142.5 88.625 C141.61699219 88.48964844 140.73398437 88.35429687 139.82421875 88.21484375 C130.97229158 86.62701149 124.66000163 84.0360832 117.5 78.625 C116.87867188 78.18542969 116.25734375 77.74585938 115.6171875 77.29296875 C103.45216539 67.9287308 95.3523405 52.20452352 88.4855957 38.79077148 C80.11131445 22.51309376 69.02792365 11.6933599 51.5 5.625 C41.40548733 2.4628635 29.96481484 4.4479261 20.5 8.625 C16.61605022 10.94120963 12.71468455 13.41031545 9.5 16.625 C5.61914638 17.28557083 3.57268841 17.27794077 0.1640625 15.203125 C-1.52087776 13.95935206 -3.19904805 12.70636681 -4.87109375 11.4453125 C-25.61400193 -2.91753328 -51.06695351 5.92346312 -67.16796875 22.78515625 Z " fill="#040404" transform="translate(245.5,290.375)"/>
<path d="M0 0 C6.42535387 6.00676404 10.79997354 12.9133987 11.48828125 21.84375 C11.07162113 31.51751116 5.7571159 40.74780417 -1.10546875 47.33203125 C-9.73080069 54.4405388 -16.40849379 55.97944775 -27.6015625 54.9296875 C-31.36543555 53.7403847 -33.09189976 51.84540023 -35.0234375 48.375 C-36.01753383 42.45072322 -32.51511186 38.0045097 -29.72265625 32.91796875 C-27.07655445 27.95815337 -27.07655445 27.95815337 -27.08984375 22.44921875 C-28.70684936 19.75420939 -29.34108329 19.01490219 -32.2890625 18.1171875 C-33.25392578 17.79814453 -33.25392578 17.79814453 -34.23828125 17.47265625 C-85.99052986 5.5824702 -146.21468344 26.40479387 -194.26953125 43.671875 C-195.45804688 44.09549316 -196.6465625 44.51911133 -197.87109375 44.95556641 C-200.08802759 45.74954543 -202.30061855 46.55579853 -204.5078125 47.37646484 C-213.57647722 50.6286449 -213.57647722 50.6286449 -218.6015625 48.9296875 C-222.92455096 46.41632212 -224.48799967 43.62495086 -226.21875 39.125 C-226.74846821 36.08722824 -226.4143126 33.90335137 -225.6015625 30.9296875 C-219.17567859 22.44926928 -209.07280286 18.09389202 -199.6015625 13.9296875 C-198.86180176 13.6011377 -198.12204102 13.27258789 -197.35986328 12.93408203 C-149.72311597 -7.91780757 -46.67349858 -37.14257394 0 0 Z " fill="#101010" transform="translate(1354.6015625,94.0703125)"/>
<path d="M0 0 C3.08540086 1.99265472 4.4940781 3.47924069 5.66015625 6.984375 C7.54234832 17.29074714 0.44123705 27.34994053 -4.0625 36.1875 C-8.14470716 44.27519179 -12.18069507 52.37665604 -16.0625 60.5625 C-23.21204631 75.61269663 -30.55044147 90.57095449 -37.86819458 105.5398407 C-40.68048281 111.29407103 -43.4858381 117.05162672 -46.28640747 122.81156921 C-63.97368097 159.18777412 -63.97368097 159.18777412 -71.4375 173.6875 C-71.91437256 174.62335938 -72.39124512 175.55921875 -72.88256836 176.5234375 C-79.15504483 188.54502893 -86.06915568 198.80100074 -99 204 C-104.67320102 205.68845269 -110.57644983 206.09396536 -115.9375 203.3125 C-119.22878121 200.82724684 -120.2872122 200.00943138 -121 196 C-120.78968098 187.66295389 -117.77268258 181.49922869 -114.0625 174.125 C-113.4400911 172.86556129 -112.81853071 171.60570295 -112.19775391 170.34545898 C-110.15602757 166.21800192 -108.08062761 162.10795365 -106 158 C-105.45137299 156.91461945 -105.45137299 156.91461945 -104.8916626 155.80731201 C-96.05291913 138.32907971 -87.07206448 120.93041915 -77.55859375 103.80810547 C-76.10896249 101.19631682 -74.66640346 98.580719 -73.22593689 95.96386719 C-60.0638229 72.05931644 -60.0638229 72.05931644 -53.20019531 60.94824219 C-51.79795607 58.67202795 -50.41125018 56.38660001 -49.0234375 54.1015625 C-39.24772735 38.07590513 -29.21311144 22.29460682 -17 8 C-15.94039062 6.67548828 -15.94039062 6.67548828 -14.859375 5.32421875 C-10.59319233 -0.00850959 -6.74513706 -1.23841197 0 0 Z " fill="#101010" transform="translate(1253,124)"/>
<path d="M0 0 C3.07661918 2.04866642 4.51021104 4.64844598 5.66015625 8.10546875 C6.59412409 14.29300567 4.6895827 19.74435547 1.66015625 25.10546875 C-2.34242822 29.6281106 -6.70397127 32.8763918 -12.80078125 33.40625 C-14.09242187 33.41011719 -15.3840625 33.41398437 -16.71484375 33.41796875 C-18.00132813 33.43472656 -19.2878125 33.45148438 -20.61328125 33.46875 C-25.74744895 32.96824938 -29.01733868 31.42797382 -32.65234375 27.79296875 C-35.06812707 23.94561013 -35.7115466 21.26420451 -34.93359375 16.74609375 C-33.16819844 9.81061216 -30.38813473 4.76487238 -24.3359375 0.7890625 C-16.78177438 -3.08937188 -7.8261331 -3.42292885 0 0 Z " fill="#101010" transform="translate(1100.33984375,153.89453125)"/>
<path d="M0 0 C2.78351807 2.28391226 3.82808353 3.88697377 4.37890625 7.453125 C4.66016437 13.94928035 3.7813836 19.60550539 0 25 C-6.75514657 31.456126 -12.35225559 32.30564685 -21.5390625 32.2109375 C-27.34661285 31.85697845 -30.428855 30.73228808 -34.4375 26.3125 C-36.72038743 21.47277865 -36.76225151 17.76316172 -35.375 12.734375 C-32.66852139 5.62986865 -27.91339446 1.00017939 -21.1875 -2.4375 C-13.64917029 -3.76779348 -6.70104109 -3.96592228 0 0 Z " fill="#101010" transform="translate(869,155)"/>
</svg>
